<?xml version="1.0" encoding="UTF-8"?><svg xmlns="http://www.w3.org/2000/svg" xmlns:xlink="http://www.w3.org/1999/xlink" height="287.3" preserveAspectRatio="xMidYMid meet" version="1.0" viewBox="0.0 0.0 287.3 287.3" width="287.3" zoomAndPan="magnify"><g><g id="change1_1"><path d="M 287.300781 143.648438 C 287.300781 222.984375 222.984375 287.300781 143.648438 287.300781 C 64.316406 287.300781 0 222.984375 0 143.648438 C 0 64.3125 64.316406 0 143.648438 0 C 222.984375 0 287.300781 64.3125 287.300781 143.648438" fill="#88ccf1"/></g><g id="change2_1"><path d="M 152.316406 152.277344 C 137.171875 167.421875 112.617188 167.421875 97.472656 152.277344 C 82.390625 137.195312 82.390625 112.640625 97.515625 97.472656 C 112.636719 82.390625 137.152344 82.390625 152.253906 97.492188 C 167.421875 112.660156 167.421875 137.175781 152.316406 152.277344 Z M 79.253906 79.210938 C 54.027344 104.480469 54.027344 145.355469 79.210938 170.539062 C 101.300781 192.628906 135.394531 195.386719 160.496094 178.738281 L 208.710938 226.953125 L 226.972656 208.691406 L 178.777344 160.457031 C 195.367188 135.460938 192.625 101.34375 170.535156 79.210938 C 145.351562 54.070312 104.460938 54.050781 79.253906 79.210938" fill="#fff"/></g></g></svg>