<svg width="137" height="144" viewBox="0 0 137 144" fill="none" xmlns="http://www.w3.org/2000/svg">
<path d="M62.7917 23.9999H22.8333C19.8054 23.9999 16.9016 25.2642 14.7605 27.5146C12.6195 29.765 11.4167 32.8173 11.4167 35.9999V120C11.4167 123.182 12.6195 126.235 14.7605 128.485C16.9016 130.736 19.8054 132 22.8333 132H102.75C105.778 132 108.682 130.736 110.823 128.485C112.964 126.235 114.167 123.182 114.167 120V77.9999M105.604 14.9999C107.875 12.6129 110.955 11.272 114.167 11.272C117.378 11.272 120.458 12.6129 122.729 14.9999C125 17.3868 126.276 20.6242 126.276 23.9999C126.276 27.3755 125 30.6129 122.729 32.9999L68.5 89.9999L45.6667 95.9999L51.375 71.9999L105.604 14.9999Z" stroke="#F3F3F3" stroke-width="4" stroke-linecap="round" stroke-linejoin="round"/>
</svg>
